<?xml version="1.0" encoding="UTF-8" standalone="no"?>
<svg width="184px" height="26px" viewBox="0 0 184 26" version="1.1" xmlns="http://www.w3.org/2000/svg" xmlns:xlink="http://www.w3.org/1999/xlink" xmlns:sketch="http://www.bohemiancoding.com/sketch/ns">
    <title>layout 1</title>
    <description>Created with Sketch (http://www.bohemiancoding.com/sketch)</description>
    <defs>
        <linearGradient x1="50%" y1="0%" x2="50%" y2="100%" id="linearGradient-1">
            <stop stop-color="#2A2A2A" offset="0%"></stop>
            <stop stop-color="#000000" offset="100%"></stop>
        </linearGradient>
    </defs>
    <g id="Page-1" stroke="none" stroke-width="1" fill="none" fill-rule="evenodd" sketch:type="MSPage">
        <g id="Artboard-1" sketch:type="MSArtboardGroup" transform="translate(-430.000000, -803.000000)">
            <g id="footer" sketch:type="MSLayerGroup" transform="translate(0.000000, 777.000000)">
                <rect d="M0,-1.77635684e-15 L0,73 L1040,73 L1040,15 L0,-1.77635684e-15 Z M0,-1.77635684e-15" id="Rectangle-2" fill="#222222" sketch:type="MSShapeGroup" x="0" y="0" width="1040" height="73"></rect>
                <g id="powered-by" transform="translate(435.000000, 29.000000)" fill="#FFFFFF" sketch:type="MSShapeGroup">
                    <path d="M1.051,10.775 L3.103,10.775 C3.783,10.775 4.265,10.649 4.55,10.396 C4.835,10.143 4.978,9.788 4.978,9.329 C4.978,8.997 4.894,8.713 4.726,8.476 C4.558,8.239 4.337,8.083 4.063,8.008 C3.886,7.961 3.558,7.936 3.081,7.936 L1.051,7.936 L1.051,10.775 L1.051,10.775 L1.051,10.775 L1.051,10.775 Z M0,14.94 L0,7 L2.996,7 C3.523,7 3.925,7.025 4.204,7.076 C4.593,7.141 4.92,7.264 5.183,7.447 C5.447,7.63 5.66,7.885 5.821,8.214 C5.982,8.542 6.062,8.903 6.062,9.297 C6.062,9.971 5.846,10.544 5.417,11.01 C4.988,11.478 4.21,11.712 3.087,11.712 L1.051,11.712 L1.051,14.94 L0,14.94 L0,14.94 Z M0,14.94" id="Fill-38"></path>
                    <path d="M8.084,11.231 C8.084,12.187 8.342,12.941 8.856,13.491 C9.371,14.042 10.016,14.317 10.791,14.317 C11.584,14.317 12.234,14.04 12.744,13.484 C13.256,12.928 13.512,12.138 13.512,11.116 C13.512,10.47 13.403,9.906 13.184,9.424 C12.965,8.942 12.645,8.567 12.225,8.303 C11.805,8.037 11.332,7.905 10.809,7.905 C10.065,7.905 9.425,8.16 8.889,8.671 C8.353,9.182 8.084,10.035 8.084,11.231 C8.084,11.231 8.084,10.035 8.084,11.231 L8.084,11.231 L8.084,11.231 Z M7,11.214 C7,9.896 7.355,8.864 8.063,8.118 C8.77,7.372 9.684,7 10.804,7 C11.536,7 12.197,7.175 12.785,7.525 C13.374,7.876 13.822,8.364 14.131,8.99 C14.441,9.617 14.596,10.327 14.596,11.122 C14.596,11.927 14.432,12.648 14.107,13.283 C13.781,13.919 13.322,14.4 12.727,14.728 C12.13,15.054 11.487,15.217 10.797,15.217 C10.051,15.217 9.383,15.036 8.793,14.675 C8.205,14.314 7.758,13.821 7.455,13.196 C7.153,12.571 7,11.911 7,11.214 L7,11.214 Z M7,11.214" id="Fill-39"></path>
                    <path d="M17.107,14.94 L15,7 L16.077,7 L17.286,12.206 C17.415,12.751 17.528,13.292 17.622,13.831 C17.824,12.981 17.943,12.493 17.978,12.362 L19.49,7 L20.757,7 L21.896,11.018 C22.181,12.016 22.386,12.953 22.513,13.831 C22.615,13.329 22.745,12.753 22.909,12.102 L24.154,7 L25.21,7 L23.033,14.94 L22.021,14.94 L20.346,8.89 C20.205,8.384 20.122,8.075 20.097,7.959 C20.014,8.323 19.937,8.634 19.864,8.89 L18.179,14.94 L17.107,14.94" id="Fill-40"></path>
                    <path d="M27,14.94 L27,7 L32.742,7 L32.742,7.936 L28.051,7.936 L28.051,10.369 L32.443,10.369 L32.443,11.301 L28.051,11.301 L28.051,14.004 L32.926,14.004 L32.926,14.94 L27,14.94" id="Fill-41"></path>
                    <path d="M36.049,10.505 L38.308,10.505 C38.789,10.505 39.164,10.455 39.435,10.355 C39.707,10.257 39.912,10.097 40.052,9.879 C40.193,9.661 40.264,9.423 40.264,9.167 C40.264,8.791 40.127,8.482 39.855,8.241 C39.582,7.999 39.152,7.878 38.562,7.878 L36.049,7.878 L36.049,10.505 L36.049,10.505 L36.049,10.505 L36.049,10.505 Z M35,14.94 L35,7 L38.519,7 C39.227,7 39.766,7.071 40.134,7.214 C40.502,7.356 40.796,7.608 41.017,7.969 C41.238,8.331 41.347,8.729 41.347,9.167 C41.347,9.729 41.165,10.204 40.8,10.591 C40.435,10.977 39.873,11.223 39.11,11.328 C39.388,11.462 39.599,11.593 39.744,11.723 C40.05,12.005 40.341,12.356 40.616,12.78 L41.998,14.94 L40.675,14.94 L39.625,13.288 C39.318,12.811 39.065,12.447 38.866,12.194 C38.667,11.942 38.49,11.764 38.333,11.663 C38.175,11.563 38.016,11.493 37.853,11.452 C37.734,11.426 37.54,11.415 37.269,11.415 L36.049,11.415 L36.049,14.94 L35,14.94 L35,14.94 Z M35,14.94" id="Fill-42"></path>
                    <path d="M43,14.94 L43,7 L48.742,7 L48.742,7.936 L44.051,7.936 L44.051,10.369 L48.444,10.369 L48.444,11.301 L44.051,11.301 L44.051,14.004 L48.926,14.004 L48.926,14.94 L43,14.94" id="Fill-43"></path>
                    <path d="M52.051,14.004 L53.746,14.004 C54.27,14.004 54.68,13.955 54.979,13.857 C55.275,13.759 55.513,13.622 55.69,13.446 C55.94,13.196 56.133,12.862 56.272,12.441 C56.41,12.02 56.481,11.51 56.481,10.911 C56.481,10.08 56.345,9.442 56.072,8.997 C55.799,8.55 55.467,8.251 55.077,8.099 C54.796,7.991 54.343,7.936 53.719,7.936 L52.051,7.936 L52.051,14.004 L52.051,14.004 L52.051,14.004 L52.051,14.004 Z M51,14.94 L51,7 L53.734,7 C54.353,7 54.823,7.038 55.149,7.114 C55.604,7.218 55.991,7.408 56.313,7.682 C56.733,8.036 57.045,8.489 57.253,9.04 C57.461,9.591 57.565,10.219 57.565,10.926 C57.565,11.53 57.494,12.064 57.353,12.53 C57.213,12.996 57.031,13.382 56.811,13.686 C56.591,13.991 56.35,14.231 56.088,14.407 C55.826,14.583 55.511,14.716 55.141,14.805 C54.77,14.895 54.345,14.94 53.864,14.94 L51,14.94 L51,14.94 Z M51,14.94" id="Fill-44"></path>
                    <path d="M63.051,14.004 L65.028,14.004 C65.367,14.004 65.605,13.991 65.743,13.966 C65.984,13.923 66.186,13.85 66.35,13.749 C66.511,13.647 66.645,13.501 66.749,13.307 C66.854,13.114 66.907,12.891 66.907,12.638 C66.907,12.343 66.831,12.085 66.68,11.867 C66.528,11.648 66.317,11.495 66.048,11.406 C65.78,11.317 65.392,11.274 64.886,11.274 L63.051,11.274 L63.051,14.004 L63.051,14.004 L63.051,14.004 L63.051,14.004 Z M63.051,10.337 L64.768,10.337 C65.233,10.337 65.567,10.305 65.769,10.245 C66.036,10.165 66.238,10.033 66.374,9.848 C66.509,9.665 66.576,9.434 66.576,9.155 C66.576,8.892 66.513,8.661 66.388,8.46 C66.261,8.259 66.08,8.122 65.846,8.048 C65.611,7.973 65.208,7.936 64.638,7.936 L63.051,7.936 L63.051,10.337 L63.051,10.337 L63.051,10.337 L63.051,10.337 Z M62,14.94 L62,7 L64.979,7 C65.585,7 66.072,7.081 66.438,7.241 C66.805,7.401 67.093,7.649 67.3,7.983 C67.508,8.317 67.611,8.667 67.611,9.031 C67.611,9.37 67.519,9.69 67.335,9.99 C67.151,10.29 66.872,10.532 66.501,10.716 C66.981,10.856 67.351,11.096 67.608,11.436 C67.866,11.775 67.997,12.176 67.997,12.638 C67.997,13.01 67.917,13.356 67.761,13.676 C67.603,13.995 67.409,14.242 67.179,14.415 C66.946,14.589 66.657,14.719 66.309,14.807 C65.96,14.896 65.533,14.94 65.028,14.94 L62,14.94 L62,14.94 Z M62,14.94" id="Fill-45"></path>
                    <path d="M72.06,14.94 L72.06,11.577 L69,7 L70.278,7 L71.843,9.393 C72.133,9.842 72.401,10.29 72.651,10.737 C72.89,10.322 73.178,9.854 73.518,9.335 L75.056,7 L76.28,7 L73.112,11.577 L73.112,14.94 L72.06,14.94" id="Fill-46"></path>
                    <path d="M89.916,12.603 C90.243,12.603 90.558,12.574 90.852,12.507 C91.151,12.443 91.416,12.338 91.641,12.185 C91.863,12.038 92.051,11.835 92.185,11.58 C92.319,11.326 92.383,10.994 92.383,10.595 C92.383,9.812 92.162,9.256 91.726,8.919 C91.286,8.585 90.701,8.42 89.981,8.42 L86.346,8.42 L86.346,12.603 L89.916,12.603 L89.916,12.603 L89.916,12.603 L89.916,12.603 Z M89.73,6.138 C90.321,6.138 90.813,5.996 91.201,5.711 C91.586,5.431 91.773,4.966 91.773,4.33 C91.773,3.976 91.709,3.685 91.586,3.458 C91.455,3.232 91.286,3.054 91.072,2.929 C90.857,2.8 90.615,2.71 90.335,2.663 C90.059,2.609 89.77,2.588 89.475,2.588 L86.346,2.588 L86.346,6.138 L89.73,6.138 L89.73,6.138 L89.73,6.138 L89.73,6.138 Z M90.162,0 C90.889,0 91.545,0.063 92.145,0.194 C92.74,0.32 93.248,0.531 93.678,0.82 C94.101,1.109 94.432,1.494 94.67,1.978 C94.9,2.455 95.016,3.054 95.016,3.761 C95.016,4.525 94.844,5.164 94.496,5.675 C94.147,6.185 93.632,6.603 92.947,6.927 C93.881,7.196 94.574,7.669 95.032,8.341 C95.494,9.019 95.72,9.83 95.72,10.781 C95.72,11.55 95.572,12.213 95.277,12.771 C94.981,13.335 94.576,13.793 94.076,14.146 C93.572,14.503 92.995,14.765 92.348,14.935 C91.707,15.103 91.044,15.19 90.362,15.19 L83,15.19 L83,0 L90.162,0 L90.162,0 Z M90.162,0" id="Fill-47"></path>
                    <path d="M104.252,6.895 C103.892,6.496 103.285,6.282 102.543,6.282 C102.06,6.282 101.661,6.363 101.341,6.529 C101.029,6.692 100.773,6.895 100.576,7.135 C100.38,7.377 100.249,7.635 100.17,7.909 C100.093,8.178 100.045,8.42 100.034,8.634 L104.949,8.634 C104.875,7.864 104.613,7.294 104.252,6.895 C104.252,6.895 104.613,7.294 104.252,6.895 L104.252,6.895 L104.252,6.895 Z M100.781,12.673 C101.234,13.114 101.887,13.336 102.736,13.336 C103.343,13.336 103.87,13.182 104.311,12.875 C104.75,12.569 105.015,12.241 105.12,11.901 L107.781,11.901 C107.351,13.224 106.703,14.169 105.818,14.739 C104.945,15.31 103.877,15.594 102.634,15.594 C101.767,15.594 100.988,15.453 100.287,15.178 C99.589,14.899 99.004,14.506 98.511,13.994 C98.033,13.483 97.661,12.875 97.394,12.162 C97.132,11.454 97,10.668 97,9.819 C97,8.996 97.136,8.229 97.406,7.518 C97.68,6.805 98.06,6.19 98.556,5.675 C99.059,5.157 99.649,4.747 100.34,4.449 C101.031,4.151 101.791,4 102.634,4 C103.564,4 104.379,4.18 105.078,4.545 C105.773,4.905 106.345,5.393 106.793,6.002 C107.241,6.612 107.56,7.308 107.759,8.09 C107.958,8.869 108.027,9.684 107.969,10.537 L100.034,10.537 C100.034,11.408 100.326,12.231 100.781,12.673 L100.781,12.673 Z M100.781,12.673" id="Fill-48"></path>
                    <path d="M113.035,0 L113.035,5.728 L113.103,5.728 C113.488,5.091 113.974,4.627 114.568,4.34 C115.164,4.051 115.745,3.908 116.31,3.908 C117.117,3.908 117.778,4.013 118.295,4.232 C118.811,4.455 119.22,4.756 119.519,5.148 C119.814,5.537 120.021,6.013 120.142,6.574 C120.263,7.134 120.324,7.75 120.324,8.431 L120.324,15.19 L117.289,15.19 L117.289,8.98 C117.289,8.074 117.147,7.394 116.865,6.949 C116.584,6.503 116.084,6.279 115.361,6.279 C114.543,6.279 113.953,6.527 113.588,7.015 C113.216,7.503 113.035,8.308 113.035,9.426 L113.035,15.19 L110,15.19 L110,0 L113.035,0" id="Fill-49"></path>
                    <path d="M128.84,10.2 C128.651,10.263 128.442,10.316 128.228,10.362 C128.006,10.403 127.776,10.437 127.536,10.467 C127.297,10.496 127.054,10.529 126.817,10.572 C126.59,10.616 126.363,10.671 126.149,10.744 C125.93,10.815 125.737,10.909 125.58,11.03 C125.416,11.153 125.285,11.304 125.185,11.487 C125.088,11.67 125.035,11.908 125.035,12.19 C125.035,12.458 125.088,12.686 125.185,12.871 C125.285,13.057 125.416,13.201 125.588,13.307 C125.759,13.414 125.957,13.489 126.18,13.53 C126.407,13.575 126.641,13.592 126.879,13.592 C127.475,13.592 127.932,13.493 128.258,13.295 C128.582,13.096 128.826,12.86 128.979,12.582 C129.135,12.305 129.229,12.027 129.261,11.745 C129.301,11.461 129.319,11.233 129.319,11.062 L129.319,9.932 C129.188,10.049 129.032,10.137 128.84,10.2 C128.84,10.2 129.032,10.137 128.84,10.2 L128.84,10.2 L128.84,10.2 Z M122.893,5.92 C123.2,5.453 123.596,5.075 124.078,4.791 C124.561,4.506 125.099,4.304 125.705,4.184 C126.309,4.059 126.912,4 127.525,4 C128.075,4 128.631,4.039 129.205,4.117 C129.772,4.196 130.287,4.348 130.756,4.576 C131.224,4.805 131.605,5.117 131.901,5.528 C132.199,5.926 132.352,6.465 132.352,7.135 L132.352,12.866 C132.352,13.366 132.381,13.838 132.434,14.291 C132.494,14.748 132.649,15.092 132.797,15.317 L129.71,15.31 C129.619,15.178 129.545,14.973 129.509,14.793 C129.474,14.617 129.449,14.438 129.434,14.252 C128.955,14.748 128.391,15.098 127.735,15.298 C127.082,15.494 126.418,15.594 125.737,15.594 C125.214,15.594 124.729,15.528 124.273,15.401 C123.823,15.272 123.425,15.075 123.086,14.805 C122.745,14.532 122.483,14.194 122.29,13.783 C122.1,13.369 122,12.878 122,12.311 C122,11.684 122.114,11.168 122.336,10.765 C122.553,10.362 122.834,10.036 123.185,9.795 C123.531,9.553 123.927,9.371 124.376,9.252 C124.823,9.133 125.274,9.033 125.721,8.964 C126.176,8.894 126.619,8.837 127.063,8.793 C127.506,8.75 127.891,8.688 128.233,8.602 C128.572,8.518 128.844,8.39 129.042,8.229 C129.239,8.065 129.332,7.828 129.319,7.514 C129.319,7.188 129.261,6.928 129.156,6.735 C129.05,6.545 128.908,6.397 128.737,6.289 C128.558,6.182 128.357,6.112 128.124,6.075 C127.891,6.041 127.641,6.022 127.375,6.022 C126.785,6.022 126.317,6.153 125.986,6.406 C125.643,6.666 125.448,7.094 125.387,7.692 L122.356,7.692 C122.401,6.978 122.576,6.389 122.893,5.92 L122.893,5.92 Z M122.893,5.92" id="Fill-50"></path>
                    <path d="M137.861,4.287 L137.861,5.82 L137.928,5.82 C138.309,5.183 138.804,4.719 139.416,4.432 C140.023,4.143 140.653,4 141.289,4 C142.101,4 142.765,4.105 143.28,4.324 C143.802,4.547 144.209,4.848 144.504,5.24 C144.806,5.629 145.013,6.105 145.134,6.666 C145.257,7.226 145.318,7.842 145.318,8.523 L145.318,15.282 L142.28,15.282 L142.28,9.072 C142.28,8.166 142.138,7.486 141.855,7.041 C141.568,6.595 141.073,6.308 140.345,6.308 C139.523,6.308 138.923,6.619 138.558,7.107 C138.187,7.595 138.004,8.4 138.004,9.518 L138.004,15.282 L135,15.282 L135,4.287 L137.861,4.287" id="Fill-51"></path>
                    <path d="M152.61,6.282 C152.125,6.282 151.722,6.389 151.402,6.612 C151.072,6.833 150.802,7.116 150.597,7.463 C150.391,7.811 150.249,8.194 150.161,8.614 C150.078,9.033 150.034,9.449 150.034,9.862 C150.034,10.26 150.078,10.664 150.161,11.078 C150.249,11.489 150.384,11.86 150.576,12.198 C150.771,12.528 151.027,12.801 151.355,13.016 C151.68,13.23 152.076,13.336 152.544,13.336 C153.271,13.336 153.828,13.133 154.218,12.731 C154.607,12.327 154.849,11.783 154.949,11.104 L157.869,11.104 C157.665,12.563 157.099,13.676 156.167,14.445 C155.228,15.207 154.029,15.594 152.566,15.594 C151.742,15.594 150.991,15.453 150.298,15.178 C149.609,14.899 149.019,14.513 148.536,14.016 C148.054,13.518 147.679,12.926 147.404,12.237 C147.136,11.547 147,10.789 147,9.967 C147,9.116 147.126,8.323 147.374,7.59 C147.622,6.86 147.988,6.227 148.474,5.697 C148.958,5.162 149.547,4.747 150.246,4.449 C150.943,4.151 151.736,4 152.63,4 C153.283,4 153.91,4.089 154.515,4.254 C155.117,4.422 155.657,4.684 156.132,5.033 C156.607,5.379 156.994,5.811 157.294,6.325 C157.588,6.841 157.756,7.457 157.802,8.162 L154.841,8.162 C154.646,6.908 153.901,6.282 152.61,6.282" id="Fill-52"></path>
                    <path d="M100,1 L106.156,1 L106.156,2.498 L100,2.498 L100,2.498 L100,1 L100,1 Z M100,1" id="Fill-53"></path>
                    <path d="M166.253,6.895 C165.89,6.496 165.277,6.282 164.543,6.282 C164.062,6.282 163.66,6.363 163.335,6.529 C163.022,6.692 162.736,6.895 162.543,7.135 C162.352,7.377 162.215,7.635 162.133,7.909 C162.062,8.178 162.012,8.42 161.998,8.634 L166.951,8.634 C166.871,7.864 166.612,7.294 166.253,6.895 C166.253,6.895 166.612,7.294 166.253,6.895 L166.253,6.895 L166.253,6.895 Z M162.745,12.673 C163.197,13.114 163.883,13.336 164.735,13.336 C165.344,13.336 165.869,13.182 166.309,12.875 C166.748,12.569 167.02,12.241 167.117,11.901 L169.777,11.901 C169.352,13.224 168.698,14.169 167.82,14.739 C166.941,15.31 165.88,15.594 164.631,15.594 C163.764,15.594 162.981,15.453 162.286,15.178 C161.588,14.899 161.003,14.506 160.513,13.994 C160.027,13.483 159.658,12.875 159.393,12.162 C159.131,11.454 159,10.668 159,9.819 C159,8.996 159.134,8.229 159.403,7.518 C159.676,6.805 160.062,6.19 160.558,5.675 C161.061,5.157 161.649,4.747 162.336,4.449 C163.025,4.151 163.793,4 164.631,4 C165.562,4 166.38,4.18 167.07,4.545 C167.77,4.905 168.344,5.393 168.787,6.002 C169.236,6.612 169.557,7.308 169.755,8.09 C169.951,8.869 170.025,9.684 169.969,10.537 L161.998,10.537 C161.998,11.408 162.289,12.231 162.745,12.673 L162.745,12.673 Z M162.745,12.673" id="Fill-54"></path>
                </g>
            </g>
        </g>
    </g>
</svg>